<?xml version="1.0" standalone="no"?>
<!DOCTYPE svg PUBLIC "-//W3C//DTD SVG 20010904//EN"
 "http://www.w3.org/TR/2001/REC-SVG-20010904/DTD/svg10.dtd">
<svg version="1.0" xmlns="http://www.w3.org/2000/svg"
 width="610.000000pt" height="610.000000pt" viewBox="0 0 610.000000 610.000000"
 preserveAspectRatio="xMidYMid meet">
<metadata>
Created by potrace 1.14, written by Peter Selinger 2001-2017
</metadata>
<g transform="translate(0.000000,610.000000) scale(0.100000,-0.100000)"
fill="#000000" stroke="none">
<path d="M2700 5935 c-530 -67 -1039 -282 -1450 -613 -425 -343 -783 -868
-939 -1379 -63 -206 -111 -450 -126 -633 l-7 -86 389 4 c420 5 755 -11 1058
-49 251 -31 280 -39 120 -32 -213 10 -627 6 -850 -6 -210 -12 -613 -46 -684
-57 l-41 -7 0 -57 c0 -92 -5 -89 118 -68 424 71 996 118 1424 118 148 0 178
-2 178 -14 0 -17 -39 -22 -225 -31 -390 -19 -870 -97 -1283 -208 l-193 -51 7
-71 c4 -38 8 -72 10 -74 2 -2 93 24 201 57 326 101 706 189 983 226 164 23
394 46 451 46 46 0 49 -2 49 -25 0 -21 -5 -25 -27 -25 -113 0 -643 -139 -908
-238 -202 -75 -617 -268 -677 -314 -17 -12 -16 -19 11 -113 53 -181 135 -387
207 -521 50 -92 165 -283 174 -289 5 -3 52 25 107 61 294 197 651 369 990 478
62 20 115 36 118 36 3 0 5 -21 5 -48 l0 -48 -62 -27 c-35 -15 -119 -59 -188
-98 -256 -145 -449 -290 -645 -481 l-140 -136 165 -164 c228 -226 436 -380
703 -518 161 -84 371 -169 526 -214 194 -56 157 -67 312 91 286 292 479 544
668 872 39 69 83 155 99 193 15 37 30 68 34 68 9 0 -37 -165 -82 -291 -103
-288 -241 -559 -439 -859 -53 -80 -97 -151 -99 -157 -3 -10 20 -13 87 -14 50
-1 95 -2 100 -3 5 -1 43 43 85 97 292 373 523 712 640 937 42 80 76 140 76
134 0 -15 -74 -259 -103 -341 -79 -217 -226 -548 -323 -729 -25 -46 -44 -87
-42 -92 4 -11 208 13 358 42 529 105 1035 370 1423 745 70 69 142 142 158 163
l31 38 -28 48 c-47 81 -183 282 -269 397 -178 239 -405 495 -658 741 -95 92
-165 164 -157 159 38 -21 188 -128 320 -228 307 -233 526 -423 787 -681 106
-104 194 -188 196 -185 24 29 67 101 66 111 -1 25 -401 361 -698 586 -112 85
-293 215 -413 296 -32 22 -58 41 -58 44 0 2 46 -21 103 -51 258 -136 750 -453
1048 -673 48 -35 89 -64 92 -64 6 0 57 89 57 100 0 24 -713 447 -1028 610 -74
39 -38 33 70 -10 273 -110 568 -244 841 -382 98 -49 180 -88 182 -86 2 2 22
51 45 108 86 221 159 530 163 690 l2 85 -180 36 c-384 78 -629 103 -1005 103
-259 1 -364 -6 -465 -30 -14 -3 -11 0 7 11 38 21 250 72 378 90 308 43 741 41
1108 -5 86 -11 163 -20 171 -20 21 0 8 352 -19 535 -189 1270 -1150 2236
-2422 2431 -147 23 -614 28 -768 9z m601 -355 c139 -14 275 -37 385 -66 736
-190 1359 -730 1669 -1447 126 -293 189 -576 209 -944 l5 -93 -33 0 -34 0 -6
118 c-22 375 -103 694 -256 1000 -350 700 -983 1192 -1710 1331 -192 36 -302
44 -545 38 -391 -9 -657 -72 -990 -236 -210 -104 -334 -185 -515 -337 -465
-392 -779 -973 -853 -1579 l-12 -100 -33 -3 c-32 -3 -32 -3 -32 41 0 25 9 97
20 162 92 538 344 1024 725 1399 418 411 895 643 1465 710 141 17 402 20 541
6z m154 -250 c209 -37 353 -82 545 -171 199 -91 354 -191 513 -328 257 -223
437 -451 582 -740 141 -281 227 -621 229 -901 1 -139 0 -145 -19 -145 -19 0
-20 9 -27 133 -36 689 -379 1310 -958 1733 -234 171 -533 301 -840 362 -152
31 -280 40 -499 34 -222 -5 -326 -19 -511 -69 -476 -128 -907 -429 -1216 -848
-207 -281 -356 -648 -408 -1008 -17 -115 -19 -122 -47 -122 -25 0 -25 21 1
175 99 596 419 1120 915 1497 193 146 499 294 738 357 305 80 696 96 1002 41z
m-106 -195 c542 -78 1015 -361 1352 -809 244 -324 385 -701 419 -1118 6 -76 8
-142 5 -148 -3 -5 -17 -10 -31 -10 -24 0 -24 1 -24 91 0 173 -51 425 -125 624
-109 291 -248 507 -474 738 -314 321 -655 499 -1106 578 -170 30 -455 32 -615
5 -226 -38 -442 -107 -587 -186 -59 -33 -82 -40 -125 -40 l-53 0 105 57 c244
131 496 209 760 233 123 11 367 4 499 -15z m11 -210 c123 -22 199 -44 335 -93
126 -46 177 -70 170 -81 -2 -5 -30 0 -61 11 -98 33 -367 98 -470 113 -231 33
-465 28 -672 -15 -99 -21 -172 -24 -207 -11 -16 7 -10 11 34 25 55 16 215 48
331 65 99 15 428 6 540 -14z m-1480 -164 c0 -23 -15 -42 -87 -104 -296 -254
-489 -519 -617 -847 -58 -150 -93 -282 -115 -433 -9 -67 -20 -121 -24 -119 -4
1 -15 2 -25 2 -17 0 -18 6 -10 76 23 212 94 448 199 662 107 217 238 399 411
569 84 83 247 222 261 223 4 0 7 -13 7 -29z m2047 -34 c4 -7 0 -8 -11 -4 -10
4 -22 7 -27 7 -5 0 -9 4 -9 9 0 12 38 2 47 -12z m-402 -97 c208 -28 368 -85
513 -180 153 -101 267 -232 341 -392 54 -114 71 -184 78 -318 13 -250 -68
-453 -252 -635 -101 -101 -220 -172 -361 -217 -57 -18 -104 -36 -104 -39 0 -3
89 -154 198 -335 109 -181 300 -498 425 -705 125 -208 227 -380 227 -383 0 -3
-146 -6 -325 -6 l-325 0 -496 829 c-273 457 -496 832 -495 835 1 3 63 8 139
10 163 5 258 27 380 87 120 59 210 146 265 257 l42 85 0 132 0 132 -42 84
c-89 179 -246 283 -480 318 -39 6 -189 11 -332 11 l-261 0 0 -1390 0 -1390
-280 0 -280 0 0 1615 0 1615 668 -3 c455 -3 696 -8 757 -17z m-1689 -533
c-193 -261 -294 -495 -353 -817 -6 -36 -13 -46 -31 -48 -19 -3 -22 1 -22 27 0
56 38 225 75 335 64 190 168 379 305 551 63 79 64 79 71 51 7 -24 0 -38 -45
-99z m2819 -773 c19 -123 29 -248 21 -278 -4 -16 -13 -26 -25 -26 -16 0 -19
12 -26 93 -4 50 -11 116 -16 146 -6 41 -5 68 7 109 9 29 18 52 20 49 3 -2 11
-44 19 -93z m1015 -689 c0 -31 -26 -43 -47 -22 -21 21 -9 47 22 47 20 0 25 -5
25 -25z m-4830 -224 c21 -41 -21 -81 -58 -55 -38 26 -22 74 25 74 12 0 27 -9
33 -19z m-172 -203 c30 -30 0 -78 -37 -58 -26 13 -27 45 -3 59 22 13 26 13 40
-1z m4922 -27 c5 -11 7 -26 4 -35 -8 -21 -42 -30 -59 -16 -15 13 -20 51 -8 63
13 14 53 6 63 -12z m-4260 -146 c26 -31 -18 -71 -47 -43 -12 12 -13 20 -4 37
14 25 34 27 51 6z m-426 -95 c68 -26 83 -122 26 -172 -70 -63 -170 -12 -170
86 0 26 8 41 35 65 37 32 66 38 109 21z m2255 -139 c13 -24 -9 -57 -33 -48
-23 9 -31 34 -16 52 17 20 37 19 49 -4z m-36 -323 c7 -21 -4 -38 -23 -38 -23
0 -34 16 -26 35 7 18 43 20 49 3z m-859 -314 c10 -26 -5 -45 -33 -42 -31 4
-41 36 -16 54 19 14 41 9 49 -12z m2639 4 c14 -21 2 -48 -22 -48 -30 0 -45 34
-25 55 18 18 33 16 47 -7z m-439 -40 c13 -19 14 -25 2 -43 -26 -39 -76 -26
-76 19 0 46 48 62 74 24z m-2683 -58 c23 -13 25 -52 4 -70 -19 -15 -61 -6 -69
16 -7 18 18 64 35 64 6 0 19 -5 30 -10z m934 -35 c0 -23 -5 -31 -21 -33 -30
-4 -48 21 -34 48 18 33 55 23 55 -15z m-1369 -80 c9 -22 -15 -55 -39 -55 -47
0 -63 48 -25 74 23 16 54 7 64 -19z m2532 -107 c17 -17 15 -53 -3 -68 -24 -20
-65 3 -65 34 0 37 43 59 68 34z m476 -49 c77 -60 74 -173 -5 -229 -25 -18 -40
-22 -85 -18 -58 5 -93 28 -120 80 -29 56 -5 135 50 169 44 27 125 26 160 -2z
m-2180 -215 c9 -8 16 -17 16 -19 0 -15 -16 -37 -32 -46 -37 -20 -76 39 -46 69
17 17 44 15 62 -4z m1531 -108 c21 -31 5 -66 -28 -66 -62 0 -62 88 0 90 7 0
20 -11 28 -24z"/>
</g>
</svg>
